<svg width="164" height="164" viewBox="0 0 164 164" fill="none" xmlns="http://www.w3.org/2000/svg">
<path fill-rule="evenodd" clip-rule="evenodd" d="M92.3336 163.647H71.3138C68.6263 163.647 66.7067 161.632 66.7067 158.944V139.844C61.2358 138.5 56.1488 136.389 51.5417 133.605L37.9124 147.139C37.1446 147.907 35.8968 148.482 34.5531 148.482C33.3054 148.482 32.0576 147.907 31.2898 147.043L16.6047 132.358C15.8368 131.59 15.165 130.342 15.165 129.094C15.165 127.751 15.7409 126.503 16.6047 125.735L30.042 112.298C27.2586 107.499 25.147 102.412 23.8033 97.1326H4.70306C2.0156 97.1326 0 95.117 0 92.4296V71.4098C0 68.7223 2.0156 66.8027 4.70306 66.8027H23.9952C25.243 61.4278 27.4505 56.2448 30.234 51.6377L16.6047 38.0084C15.7409 37.0486 15.165 35.8968 15.165 34.5531C15.165 33.4013 15.7409 32.1536 16.6047 31.3857L31.2898 16.6047C33.1134 14.877 36.2808 14.877 37.9124 16.6047L51.5417 30.33C56.1488 27.5465 61.3318 25.3389 66.7067 23.8992V4.60708C66.7067 2.11158 68.8183 0 71.3138 0H92.3336C94.9251 0 97.0367 2.11158 97.0367 4.60708V23.8992C102.316 25.243 107.403 27.3545 112.202 30.33L125.735 16.6047C127.751 14.877 130.534 14.877 132.262 16.6047L147.139 31.4817C148.866 33.2094 148.866 35.9928 147.331 38.0084L133.509 51.6377C136.293 56.2448 138.404 61.4278 139.844 66.8027H159.136C161.632 66.8027 163.839 68.9143 163.839 71.4098V92.4296C163.839 95.0211 161.632 97.1326 159.136 97.1326H139.844C138.5 102.412 136.389 107.499 133.509 112.298L147.043 125.831C147.811 126.695 148.386 127.847 148.386 129.19C148.386 130.534 147.811 131.59 147.043 132.55L132.166 147.235C131.302 148.098 130.246 148.578 129.094 148.578C127.751 148.578 126.503 148.194 125.639 147.139L112.202 133.605C107.403 136.389 102.316 138.5 97.0367 139.844V159.136C97.0367 161.632 94.9251 163.647 92.3336 163.647ZM51.2538 128.23C51.6377 128.23 52.1176 128.422 52.4056 128.614C57.5885 131.974 63.3474 134.373 69.4902 135.717C70.5459 136.005 71.3138 136.869 71.3138 137.925V158.944H92.2376V137.925C92.2376 136.869 93.0055 136.005 94.0613 135.717C100.204 134.373 106.059 131.974 111.242 128.614C112.202 128.134 113.353 128.23 114.217 128.902L128.902 143.683L143.683 128.902L128.902 114.121C128.134 113.353 128.038 112.106 128.71 111.242C132.166 105.867 134.565 100.204 135.909 94.1572C136.101 93.1014 137.061 92.3336 138.116 92.3336H159.136V71.4098H138.116C137.061 71.4098 136.101 70.6419 135.909 69.6821C134.373 63.4434 131.974 57.6845 128.71 52.5015C128.134 51.6377 128.23 50.39 128.902 49.6221L143.875 34.7451L129.094 19.964L114.217 34.8411C113.353 35.6089 112.202 35.8009 111.242 35.129C105.771 31.6737 100.108 29.2742 94.0613 27.9304C93.0055 27.6425 92.2376 26.6827 92.2376 25.6269V4.60708H71.3138V25.6269C71.3138 26.6827 70.5459 27.6425 69.5861 27.9304C63.3474 29.3701 57.5885 31.7697 52.4056 35.129C51.5417 35.6089 50.294 35.5129 49.5261 34.8411L34.5531 19.964L19.964 34.7451L34.7451 49.4301C35.5129 50.294 35.7049 51.4457 35.033 52.4056C31.6737 57.5885 29.2742 63.4434 27.9304 69.5861C27.6425 70.6419 26.7787 71.4098 25.7229 71.4098H4.70306V92.3336H25.7229C26.7787 92.3336 27.6425 93.1014 27.9304 94.1572C29.2742 100.3 31.6737 106.155 35.033 111.338C35.5129 112.298 35.4169 113.449 34.7451 114.313L19.964 129.094L34.7451 143.779L49.6221 128.902C50.006 128.518 50.6779 128.23 51.2538 128.23ZM128.902 143.779C128.902 143.971 128.902 143.971 128.902 143.779Z" fill="#F7A400"/>
<path fill-rule="evenodd" clip-rule="evenodd" d="M81.9677 126.407C57.3966 126.407 37.4326 106.443 37.4326 81.7758C37.4326 57.3007 57.3966 37.3367 81.9677 37.3367C106.443 37.3367 126.407 57.3007 126.407 81.7758C126.407 106.443 106.443 126.407 81.9677 126.407ZM81.9677 42.0397C59.9881 42.0397 42.0397 59.8922 42.0397 81.7758C42.0397 103.755 59.9881 121.704 81.9677 121.704C103.947 121.704 121.8 103.755 121.8 81.7758C121.8 59.8922 103.947 42.0397 81.9677 42.0397Z" fill="#F7A400"/>
<path fill-rule="evenodd" clip-rule="evenodd" d="M70.6417 99.1483C70.5458 99.1483 70.3538 99.1483 70.3538 99.1483C69.6819 98.9563 69.106 98.5724 68.6261 97.9005L61.2356 84.8471C60.5637 83.7913 60.9477 82.3516 62.0035 81.6797C63.0593 81.0079 64.499 81.3918 65.1708 82.4476L71.2176 92.8135L98.8601 65.171C99.8199 64.2112 101.26 64.2112 102.219 65.171C103.083 66.1308 103.083 67.5706 102.219 68.5304L72.3694 98.4764C71.8895 98.8603 71.3136 99.1483 70.6417 99.1483Z" fill="#F7A400"/>
</svg>
