<svg width="64" height="63" viewBox="0 0 64 63" fill="none" xmlns="http://www.w3.org/2000/svg">
<path d="M25.0598 15.9379L25.1004 19.1876L29.975 19.1266L30.0821 27.6897C29.082 28.2873 28.478 29.3674 28.4924 30.5211L28.5127 32.1459L35.0122 32.0647L34.9919 30.4398C34.9774 29.2861 34.3466 28.2215 33.3319 27.6491L33.2248 19.086L38.0994 19.0251L38.0588 15.7753L25.0598 15.9379ZM21.9929 30.6023C18.4019 30.6472 15.507 31.7723 15.5239 33.1209C15.5407 34.4696 18.4629 35.5219 22.0538 35.477C25.6448 35.4321 28.5397 34.307 28.5229 32.9584C28.506 31.6097 25.5839 30.5574 21.9929 30.6023ZM41.4914 30.3585C37.9004 30.4034 35.0055 31.5285 35.0223 32.8771C35.0392 34.2258 37.9613 35.2781 41.5523 35.2332C45.1433 35.1883 48.0382 34.0632 48.0213 32.7146C48.0045 31.3659 45.0823 30.3136 41.4914 30.3585ZM28.533 33.7708L28.5533 35.3957C28.568 36.5656 29.1988 37.6303 30.2134 38.1864C31.2281 38.7588 32.463 38.7433 33.4631 38.1458C34.4634 37.5645 35.0672 36.4681 35.0528 35.3144L35.0325 33.6896L28.533 33.7708Z" fill="black"/>
<mask id="path-2-inside-1_83_4" fill="white">
<path d="M10.8228 25.0074C12.3415 20.5322 15.2302 16.5893 19.0799 13.7373C22.9295 10.8854 27.5448 9.26896 32.2719 9.1171C36.999 8.96524 41.5982 10.2856 45.418 12.8912C49.2377 15.4968 52.0844 19.2554 53.5547 23.6347L50.2737 24.8173C49.0289 21.1093 46.6185 17.9268 43.3843 15.7206C40.15 13.5144 36.2557 12.3964 32.2532 12.525C28.2507 12.6536 24.3429 14.0222 21.0833 16.437C17.8238 18.8518 15.3778 22.1903 14.0919 25.9796L10.8228 25.0074Z"/>
</mask>
<path d="M10.8228 25.0074C12.3415 20.5322 15.2302 16.5893 19.0799 13.7373C22.9295 10.8854 27.5448 9.26896 32.2719 9.1171C36.999 8.96524 41.5982 10.2856 45.418 12.8912C49.2377 15.4968 52.0844 19.2554 53.5547 23.6347L50.2737 24.8173C49.0289 21.1093 46.6185 17.9268 43.3843 15.7206C40.15 13.5144 36.2557 12.3964 32.2532 12.525C28.2507 12.6536 24.3429 14.0222 21.0833 16.437C17.8238 18.8518 15.3778 22.1903 14.0919 25.9796L10.8228 25.0074Z" stroke="white" stroke-width="2" mask="url(#path-2-inside-1_83_4)"/>
</svg>
