<svg width="19" height="50" viewBox="0 0 19 50" fill="none" xmlns="http://www.w3.org/2000/svg">
<path d="M10.128 24.3255L10.5816 23.5306L10.5816 21.2208L8.81428 24.3255L10.128 24.3255ZM10.5569 23.5231L10.1133 24.3005L8.85372 24.3005L10.5569 21.3008L10.5569 23.5231ZM8.38786 24.093L8.38786 24.0455L10.1133 21.0084L9.26288 21.0084L8.39526 22.5332L8.39526 22.4832L8.39526 24.093L8.38786 24.093ZM8.41251 22.5382L9.27028 21.0384L10.0763 21.0384L8.41251 23.9605L8.41251 22.5382ZM10.5791 21.2208L10.5791 23.5781L10.5791 21.1708L10.5766 21.1733L10.5791 21.2208ZM10.1182 21.0059L10.1453 21.0059L10.1453 21.0084L10.1182 21.0059ZM7.94666 21.0034L7.94666 24.358C7.94599 24.4146 7.95651 24.4708 7.97758 24.5233C7.99865 24.5758 8.02985 24.6234 8.06936 24.6635C8.10886 24.7035 8.15586 24.7352 8.20759 24.7566C8.25933 24.7779 8.31475 24.7886 8.37061 24.7879L10.589 24.7879C10.6448 24.7886 10.7003 24.7779 10.752 24.7566C10.8037 24.7352 10.8507 24.7035 10.8902 24.6635C10.9297 24.6234 10.9609 24.5758 10.982 24.5233C11.0031 24.4708 11.0136 24.4146 11.0129 24.358L11.0129 20.9884C11.0133 20.9319 11.0025 20.876 10.9813 20.8238C10.9601 20.7716 10.9288 20.7243 10.8893 20.6845C10.8499 20.6447 10.803 20.6133 10.7514 20.592C10.6998 20.5708 10.6446 20.5602 10.589 20.5609L8.37061 20.5609C8.31369 20.5602 8.25721 20.5712 8.20464 20.5934C8.15206 20.6155 8.10449 20.6483 8.06481 20.6897C8.02514 20.7311 7.9942 20.7802 7.97389 20.8342C7.95357 20.8881 7.94431 20.9457 7.94666 21.0034ZM8.36322 22.5382L8.38786 22.4982L8.38786 21.0034L9.22838 21.0009L9.24316 20.9809L10.1601 20.9809L10.1453 21.0034L10.5816 21.0034L10.5816 21.1683L10.6038 21.1258L10.6038 23.5331L10.5816 23.5756L10.1404 24.348L8.76991 24.348L10.5791 21.1708L10.5791 21.0034L10.1453 21.0034L8.38786 24.088L8.38786 24.3205L8.38786 24.093L8.36322 24.1305L8.36322 22.5382ZM9.22838 21.0084L8.38786 21.0084L8.38786 22.4832L9.22838 21.0084ZM8.66146 25.4528C8.53812 25.4528 8.41755 25.4899 8.315 25.5594C8.21245 25.6289 8.13252 25.7277 8.08533 25.8433C8.03813 25.9588 8.02578 26.086 8.04984 26.2087C8.0739 26.3313 8.13329 26.444 8.2205 26.5325C8.30772 26.6209 8.41883 26.6811 8.5398 26.7055C8.66077 26.7299 8.78615 26.7174 8.9001 26.6696C9.01405 26.6217 9.11145 26.5406 9.17997 26.4366C9.24849 26.3326 9.28507 26.2104 9.28507 26.0853C9.28606 26.0019 9.27061 25.9193 9.23962 25.8421C9.20863 25.7649 9.16273 25.6948 9.10463 25.6358C9.04652 25.5769 8.97738 25.5304 8.90127 25.4989C8.82516 25.4675 8.74363 25.4518 8.66146 25.4528ZM8.66146 26.2677C8.63149 26.2684 8.60187 26.2612 8.5755 26.2467C8.54914 26.2323 8.52694 26.2111 8.5111 26.1853C8.49008 26.1554 8.47887 26.1195 8.47906 26.0828C8.47608 26.0568 8.47853 26.0306 8.48627 26.0057C8.49401 25.9808 8.50686 25.9578 8.52397 25.9383C8.54109 25.9188 8.56207 25.9032 8.58556 25.8925C8.60904 25.8818 8.63449 25.8763 8.66023 25.8763C8.68597 25.8763 8.71142 25.8818 8.7349 25.8925C8.75838 25.9032 8.77937 25.9188 8.79648 25.9383C8.81359 25.9578 8.82644 25.9808 8.83418 26.0057C8.84192 26.0306 8.84438 26.0568 8.84139 26.0828C8.84141 26.131 8.82287 26.1773 8.78973 26.2118C8.75658 26.2464 8.71144 26.2664 8.66393 26.2677L8.66146 26.2677ZM8.84386 26.0853L8.48153 26.0853C8.4851 26.1205 8.49602 26.1546 8.51357 26.1853C8.52919 26.2107 8.54961 26.2323 8.5755 26.2467C8.60187 26.2612 8.63149 26.2684 8.66146 26.2677C8.70941 26.2678 8.75544 26.2486 8.78957 26.2145C8.82371 26.1803 8.84321 26.1339 8.84386 26.0853ZM10.3252 25.4528C10.2018 25.4524 10.081 25.489 9.9781 25.5582C9.87523 25.6274 9.79492 25.726 9.74734 25.8415C9.69976 25.957 9.68706 26.0843 9.71084 26.2071C9.73463 26.33 9.79382 26.4429 9.88094 26.5316C9.96805 26.6203 10.0792 26.6807 10.2002 26.7054C10.3212 26.73 10.4467 26.7176 10.5608 26.6698C10.6749 26.622 10.7725 26.5409 10.8411 26.4369C10.9097 26.3328 10.9464 26.2105 10.9464 26.0853C10.9474 26.0022 10.932 25.9197 10.9011 25.8427C10.8703 25.7656 10.8246 25.6956 10.7668 25.6367C10.709 25.5778 10.6401 25.5312 10.5643 25.4997C10.4885 25.4681 10.4072 25.4522 10.3252 25.4528ZM10.5076 26.0853C10.5076 26.1343 10.4884 26.1814 10.4542 26.2161C10.42 26.2508 10.3736 26.2702 10.3252 26.2702C10.2769 26.2702 10.2305 26.2508 10.1963 26.2161C10.162 26.1814 10.1428 26.1343 10.1428 26.0853C10.1428 26.0362 10.162 25.9892 10.1963 25.9545C10.2305 25.9198 10.2769 25.9003 10.3252 25.9003C10.3736 25.9003 10.42 25.9198 10.4542 25.9545C10.4884 25.9892 10.5076 26.0362 10.5076 26.0853ZM10.3252 26.2677C10.373 26.2671 10.4187 26.2478 10.4527 26.2138C10.4867 26.1797 10.5064 26.1337 10.5076 26.0853L10.1428 26.0853C10.1428 26.1343 10.162 26.1814 10.1963 26.2161C10.2304 26.2502 10.2773 26.2678 10.3252 26.2677ZM16.7979 8.47981L16.0708 6.23007L16.0486 6.17008C15.995 6.05593 15.9008 5.96661 15.7849 5.9201C15.669 5.88242 15.5434 5.88954 15.4324 5.9401L10.8576 8.14235L10.8847 8.16484C11.0797 8.35534 11.2349 8.5836 11.3412 8.83609C11.4474 9.08858 11.5026 9.36015 11.5034 9.63468C11.5051 9.75838 11.4977 9.88204 11.4812 10.0046L11.4812 10.0396L16.4578 9.09224C16.5217 9.07846 16.5823 9.05191 16.6361 9.01414C16.6898 8.97638 16.7356 8.92815 16.7708 8.87226L16.793 8.83477C16.8374 8.72104 16.8391 8.59476 16.7979 8.47981ZM16.7338 8.85227C16.7015 8.90661 16.6582 8.95342 16.6068 8.98961C16.5554 9.0258 16.4971 9.05055 16.4356 9.06224L11.4936 10.0046C11.5168 9.88445 11.5276 9.76213 11.5256 9.63967C11.5262 9.36166 11.471 9.08644 11.3633 8.83075C11.2557 8.57506 11.0979 8.34424 10.8995 8.15235L15.4422 5.9676C15.4942 5.94222 15.5505 5.92751 15.608 5.92434C15.6656 5.92116 15.7232 5.92958 15.7775 5.9491C15.8318 5.96863 15.8818 5.99887 15.9245 6.03808C15.9672 6.0773 16.0019 6.12471 16.0264 6.17757L16.0486 6.23257L16.7757 8.48231C16.7941 8.54288 16.7996 8.6067 16.792 8.66959C16.7843 8.73249 16.7637 8.79303 16.7314 8.84727L16.7338 8.85227ZM7.53749 10.0046C7.51744 9.88565 7.5059 9.76535 7.50299 9.64467C7.50508 9.37003 7.56158 9.09862 7.66913 8.84655C7.77668 8.59449 7.93309 8.36691 8.12906 8.17734L8.15617 8.15235L3.56909 5.9426C3.50827 5.91648 3.44289 5.90301 3.37684 5.90301C3.31078 5.90301 3.2454 5.91648 3.18458 5.9426C3.06872 6.00109 2.98018 6.10345 2.93809 6.22757L2.21097 8.47731L2.19618 8.5373C2.18479 8.59774 2.18535 8.65986 2.19782 8.72008C2.21029 8.78029 2.23442 8.8374 2.26881 8.88809C2.3032 8.93878 2.34717 8.98204 2.39816 9.01536C2.44916 9.04869 2.50618 9.07142 2.5659 9.08224L7.53749 10.0296L7.53749 10.0046ZM2.56344 9.06224C2.44969 9.03976 2.34913 8.97304 2.28326 8.87634C2.21739 8.77964 2.19144 8.66065 2.21097 8.5448L2.22575 8.48731L2.95288 6.23757C2.97107 6.17625 3.00269 6.1199 3.04537 6.07272C3.08805 6.02554 3.1407 5.98875 3.19937 5.9651C3.23388 5.9501 3.27085 5.9651 3.30782 5.9651C3.27395 5.96482 3.24039 5.97163 3.20923 5.9851C3.15605 6.00843 3.10823 6.04269 3.06877 6.08571C3.02932 6.12874 2.99909 6.17959 2.98 6.23507L2.25287 8.48481L2.24054 8.5373C2.22978 8.59213 2.2298 8.64857 2.24058 8.70339C2.25137 8.75821 2.27271 8.81034 2.3034 8.85678C2.33408 8.90322 2.37349 8.94307 2.41938 8.97403C2.46528 9.005 2.51674 9.02648 2.57083 9.03724L7.47587 9.96714C7.45943 9.85623 7.45038 9.74432 7.44876 9.63217C7.45328 9.07766 7.67392 8.54748 8.0625 8.15735L3.55184 5.9851C3.51743 5.97367 3.48189 5.96613 3.44585 5.9626C3.48529 5.9626 3.52719 5.9451 3.56416 5.9626L8.10441 8.14735C7.90575 8.33823 7.7474 8.56805 7.63893 8.82285C7.53047 9.07765 7.47415 9.35214 7.47341 9.62967C7.47315 9.75517 7.48221 9.88051 7.50052 10.0046L2.56344 9.06224ZM8.54808 7.84238C8.83959 7.68267 9.16571 7.59904 9.49704 7.59904C9.82837 7.59904 10.1545 7.68267 10.446 7.84238L10.4756 7.85988L11.1263 2.76797L11.1263 2.70798C11.125 2.58374 11.0758 2.46496 10.9892 2.37711C10.9025 2.28926 10.7854 2.23933 10.6629 2.23803L8.25969 2.23803C8.19939 2.24603 8.14126 2.26604 8.08862 2.29692C8.03599 2.32781 7.9899 2.36895 7.95301 2.41797C7.91612 2.467 7.88916 2.52295 7.87369 2.58259C7.85822 2.64222 7.85453 2.70438 7.86285 2.76547L8.52343 7.85988L8.54808 7.84238ZM8.27694 2.26803L10.6777 2.26803C10.7937 2.26933 10.9045 2.31662 10.9865 2.39979C11.0685 2.48295 11.1152 2.59537 11.1164 2.71298L11.1164 2.76797L10.4707 7.82488C10.1753 7.66599 9.84613 7.58291 9.51183 7.58291C9.17753 7.58291 8.84832 7.66599 8.55301 7.82488L7.89243 2.75547C7.87996 2.63917 7.91342 2.5226 7.98548 2.43126C8.05754 2.33991 8.16233 2.28122 8.27694 2.26803ZM11.1115 9.63217C11.1096 9.20162 10.9402 8.78923 10.6403 8.48455C10.3403 8.17986 9.93391 8.00749 9.50937 8.00486C9.08118 8.00486 8.67053 8.17737 8.36776 8.48442C8.06499 8.79148 7.89489 9.20793 7.89489 9.64217C7.89489 10.0764 8.06499 10.4929 8.36776 10.7999C8.67053 11.107 9.08118 11.2795 9.50937 11.2795C9.93712 11.2762 10.3461 11.1008 10.6465 10.792C10.9469 10.4831 11.1141 10.066 11.1115 9.63217ZM9.50937 11.2545C9.19455 11.2545 8.88679 11.1598 8.62499 10.9825C8.3632 10.8052 8.15911 10.5531 8.03852 10.2582C7.91793 9.96329 7.88626 9.63873 7.94749 9.32556C8.00873 9.01238 8.16014 8.72465 8.38258 8.49871C8.60502 8.27278 8.88851 8.11878 9.19722 8.05619C9.50593 7.9936 9.82601 8.02523 10.117 8.14707C10.408 8.2689 10.6568 8.47549 10.8321 8.74071C11.0074 9.00594 11.1012 9.3179 11.1017 9.63717C11.1023 9.84954 11.0616 10.0599 10.9818 10.2563C10.9021 10.4526 10.7848 10.6311 10.6369 10.7814C10.4889 10.9317 10.3132 11.0508 10.1197 11.132C9.92617 11.2132 9.71877 11.2548 9.50937 11.2545ZM12.5066 16.3739C12.4844 16.3739 12.4672 16.3489 12.445 16.3439C12.4672 16.3489 12.482 16.3714 12.5066 16.3739ZM11.321 10.4871L11.3062 10.5196C11.1613 10.8214 10.9455 11.0826 10.6777 11.28C10.4099 11.4774 10.0985 11.6052 9.77064 11.6519L9.73613 11.6519L12.1615 16.1514L12.1936 16.2039C12.2618 16.2703 12.3473 16.3154 12.4401 16.3339C12.3548 16.3133 12.2781 16.2661 12.2207 16.1989L12.1887 16.1489L9.78296 11.6744C10.1144 11.627 10.4293 11.4978 10.7 11.2982C10.9708 11.0986 11.1891 10.8347 11.3358 10.5296L14.7866 14.2341C14.8266 14.2764 14.858 14.3264 14.8788 14.3811C14.8996 14.4358 14.9095 14.4942 14.9079 14.5528C14.9063 14.6114 14.8932 14.6691 14.8694 14.7225C14.8457 14.776 14.8116 14.8241 14.7693 14.8641L14.7274 14.8991L12.832 16.2964C12.7396 16.3624 12.6259 16.3901 12.514 16.3739C12.5362 16.3739 12.551 16.4064 12.5756 16.4064C12.6728 16.4042 12.7671 16.3728 12.8468 16.3164L14.7422 14.9191L14.7866 14.8816C14.8734 14.7944 14.9252 14.6778 14.932 14.5541C14.933 14.4297 14.8882 14.3093 14.8063 14.2166L11.321 10.4871ZM7.69524 10.5196L7.67799 10.4871L4.20256 14.2166L4.16559 14.2541C4.09575 14.3562 4.06588 14.4809 4.08178 14.6041C4.09006 14.6655 4.11075 14.7245 4.14256 14.7774C4.17437 14.8303 4.21661 14.876 4.26664 14.9116L6.16211 16.3089L6.21141 16.3414C6.27988 16.378 6.35587 16.3976 6.43324 16.3989C6.47748 16.3982 6.52141 16.3915 6.56388 16.3789C6.6802 16.3412 6.77858 16.261 6.83994 16.1539L9.26288 11.6544L9.22838 11.6544C8.90003 11.6092 8.58797 11.4817 8.32032 11.2836C8.05267 11.0855 7.83785 10.8229 7.69524 10.5196ZM6.81776 16.1489C6.7611 16.2512 6.66729 16.327 6.55633 16.3601C6.44536 16.3933 6.32602 16.3812 6.22373 16.3264L6.17443 16.2964L4.28143 14.8991C4.18826 14.8287 4.126 14.7241 4.10803 14.6078C4.09005 14.4914 4.1178 14.3725 4.1853 14.2766L4.21981 14.2341L7.67059 10.5296C7.81555 10.836 8.03336 11.1011 8.30443 11.3009C8.57549 11.5008 8.89131 11.6291 9.22345 11.6744L6.81776 16.1489ZM14.7447 14.8466C14.7855 14.8093 14.8182 14.7639 14.8407 14.7131C14.8632 14.6623 14.875 14.6073 14.8753 14.5516C14.8777 14.4404 14.837 14.3327 14.7619 14.2516L11.3334 10.5721C11.1869 10.8689 10.9723 11.1257 10.7077 11.321C10.443 11.5163 10.1361 11.6444 9.81254 11.6944L12.2034 16.1389L12.233 16.1839C12.2648 16.2285 12.305 16.2663 12.3512 16.2952C12.3974 16.324 12.4488 16.3432 12.5024 16.3518C12.556 16.3604 12.6108 16.3582 12.6635 16.3452C12.7163 16.3323 12.766 16.3089 12.8098 16.2764L14.7053 14.8816L14.7447 14.8466ZM16.0264 6.23757L16.0042 6.18507C15.981 6.13513 15.9482 6.09035 15.9078 6.05333C15.8674 6.01631 15.8202 5.9878 15.7688 5.96943C15.7175 5.95106 15.663 5.94321 15.6087 5.94633C15.5543 5.94945 15.5011 5.96347 15.4521 5.9876L10.9414 8.15735C11.1347 8.35071 11.288 8.58114 11.3925 8.8352C11.497 9.08927 11.5507 9.36189 11.5503 9.63717C11.5486 9.74932 11.5396 9.86123 11.5231 9.97214L16.4331 9.03724C16.5381 9.01722 16.6315 8.95732 16.6944 8.86976L16.7116 8.83977C16.7418 8.78833 16.7609 8.731 16.7677 8.67156C16.7745 8.61211 16.7688 8.55188 16.7511 8.49481L16.0264 6.23757ZM7.66566 10.5721L4.23707 14.2541L4.20502 14.2941C4.14041 14.3846 4.1135 14.4972 4.13011 14.6076C4.14671 14.718 4.2055 14.8173 4.29376 14.8841L6.18922 16.2789L6.23605 16.3089C6.33296 16.3612 6.44625 16.3729 6.55155 16.3414C6.604 16.3271 6.65297 16.3019 6.69539 16.2675C6.7378 16.2331 6.77275 16.1902 6.79804 16.1414L9.18894 11.6969C8.86472 11.647 8.5571 11.5187 8.292 11.3229C8.0269 11.1272 7.81208 10.8697 7.66566 10.5721ZM9.50937 7.54992C9.83657 7.54719 10.1593 7.62708 10.4485 7.78239L11.0795 2.75547L11.0795 2.70798C11.0782 2.597 11.0342 2.49094 10.9568 2.41246C10.8794 2.33398 10.7748 2.28932 10.6654 2.28803L8.27694 2.28803C8.16911 2.30475 8.07197 2.36347 8.00615 2.45169C7.94033 2.53991 7.91103 2.65069 7.92447 2.76047L8.56533 7.77989C8.85619 7.62464 9.18071 7.54558 9.50937 7.54992ZM10.6038 8.50481C10.4588 8.35685 10.2864 8.23956 10.0964 8.15975C9.9064 8.07993 9.70268 8.03918 9.49704 8.03986C9.187 8.04008 8.88399 8.13352 8.62631 8.30839C8.36864 8.48325 8.16788 8.73167 8.04942 9.02224C7.93096 9.31282 7.90012 9.63249 7.9608 9.94083C8.02148 10.2492 8.17096 10.5324 8.39033 10.7545C8.53525 10.9025 8.70771 11.0198 8.8977 11.0996C9.08768 11.1794 9.2914 11.2202 9.49704 11.2195C9.80708 11.2193 10.1101 11.1258 10.3678 10.951C10.6254 10.7761 10.8262 10.5277 10.9447 10.2371C11.0631 9.94653 11.094 9.62687 11.0333 9.31852C10.9726 9.01017 10.8231 8.727 10.6038 8.50481ZM16.6771 4.86273C16.7363 4.95272 16.8152 5.03271 16.8719 5.1277C16.8152 5.03271 16.7388 4.95272 16.6771 4.86273ZM17.5571 6.58753C17.5571 6.61002 17.5793 6.63002 17.5867 6.65252L17.5571 6.58753ZM8.34596 19.1886C8.06975 19.1545 7.79509 19.1087 7.5227 19.0511L7.5227 27.9376C7.5227 28.269 7.65255 28.5869 7.88367 28.8213C8.1148 29.0557 8.42827 29.1874 8.75512 29.1874L10.234 29.1874C10.5609 29.1874 10.8744 29.0557 11.1055 28.8213C11.3366 28.5869 11.4665 28.269 11.4665 27.9376L11.4665 19.0511C11.1953 19.1077 10.9209 19.1536 10.6432 19.1886C9.88006 19.2793 9.10909 19.2793 8.34596 19.1886ZM11.464 19.0586L11.464 27.9376C11.464 28.269 11.3366 28.5869 11.1055 28.8213C10.8744 29.0557 10.5584 29.1874 10.2316 29.1874L8.75512 29.1874C8.42827 29.1874 8.11233 29.0557 7.88121 28.8213C7.65008 28.5869 7.5227 28.269 7.5227 27.9376L7.52024 19.0586C7.76672 19.1111 8.01321 19.1561 8.33857 19.1936C9.10303 19.2896 9.87626 19.2896 10.6407 19.1936C10.9332 19.1586 11.2076 19.1136 11.464 19.0586ZM17.4511 46.9828L10.7418 46.9828L10.7418 34.5293C10.7418 34.4391 10.7065 34.3527 10.6436 34.2889C10.5807 34.2251 10.4955 34.1893 10.4066 34.1893L10.3844 34.1893L10.3844 29.8548C10.8617 29.8183 11.3078 29.6001 11.6332 29.2441C11.9587 28.8881 12.1395 28.4205 12.1394 27.9351L12.1394 18.8886C13.9442 18.3593 15.5538 17.2991 16.7645 15.8422C17.9752 14.3852 18.7328 12.5968 18.9413 10.7032C19.1498 8.80962 18.8 6.89584 17.9361 5.20386C17.0721 3.51189 15.7329 2.11772 14.0876 1.19765C12.4424 0.277574 10.5651 -0.127076 8.69311 0.0348648C6.82111 0.196806 5.0385 0.918064 3.5707 2.10744C2.10289 3.29681 1.01582 4.90087 0.446928 6.7168C-0.121961 8.53272 -0.147112 10.4789 0.374657 12.3094C0.531554 12.8307 0.730225 13.3382 0.968685 13.8267C0.232391 12.3354 -0.0807939 10.666 0.064086 9.00475C-0.0193608 10.1163 0.0907726 11.234 0.389445 12.3069C0.546016 12.8412 0.746366 13.3612 0.988402 13.8617L0.968685 13.8267C1.00812 13.91 1.05249 13.9933 1.09686 14.0767L1.0796 14.0492C1.32 14.5259 1.59778 14.9823 1.91026 15.414L1.91026 15.429C2.44521 16.1407 3.07195 16.7763 3.77368 17.3188L3.79093 17.3188C4.21578 17.6356 4.665 17.9173 5.13427 18.1612L5.10223 18.1462L5.34871 18.2762L5.30927 18.2562C5.80352 18.5018 6.31718 18.705 6.84487 18.8636L6.84487 27.9226C6.84713 28.4055 7.02833 28.8699 7.35251 29.2237C7.67668 29.5775 8.12015 29.7947 8.59491 29.8323L8.59491 34.2018L8.56287 34.2018C8.52037 34.2015 8.47824 34.2097 8.43891 34.2261C8.39959 34.2424 8.36386 34.2665 8.33381 34.297C8.30376 34.3275 8.27999 34.3637 8.26388 34.4036C8.24777 34.4435 8.23965 34.4862 8.23997 34.5293L8.23997 47.0003L1.54299 47.0003C1.13786 47.0017 0.749653 47.1653 0.462948 47.4556C0.176243 47.7459 0.0142733 48.1393 0.0123245 48.5502L0.0123245 48.8876C0.0123216 49.1818 0.127207 49.464 0.331842 49.6724C0.536478 49.8809 0.814201 49.9987 1.10425 50L17.8898 50C18.1786 49.9993 18.4553 49.8827 18.6595 49.6757C18.8637 49.4686 18.9786 49.188 18.9793 48.8951L18.9793 48.5602C18.9796 48.3564 18.9403 48.1546 18.8637 47.9663C18.787 47.778 18.6745 47.6068 18.5326 47.4627C18.3906 47.3185 18.2221 47.2041 18.0365 47.1261C17.8509 47.048 17.652 47.0078 17.4511 47.0078L10.727 47.0078L10.727 34.5293C10.7273 34.4862 10.7192 34.4435 10.7031 34.4036C10.687 34.3637 10.6632 34.3275 10.6332 34.297C10.6031 34.2665 10.5674 34.2424 10.5281 34.2261C10.4887 34.2097 10.4466 34.2015 10.4041 34.2018L10.3696 34.2018L10.3696 29.8448C10.8444 29.8072 11.2878 29.59 11.612 29.2362C11.9362 28.8824 12.1174 28.418 12.1196 27.9351L12.1196 18.8786C13.1768 18.5578 14.1698 18.05 15.0528 17.3788C14.1706 18.0498 13.1784 18.5575 12.1221 18.8786L12.1221 27.9301C12.1209 28.4151 11.9378 28.8812 11.612 29.2362C11.2862 29.5912 10.8416 29.8089 10.3647 29.8448L10.3647 34.1893L10.3942 34.1893C10.4814 34.19 10.5648 34.2256 10.6262 34.2883C10.6876 34.3511 10.7221 34.4359 10.7221 34.5243L10.7221 47.0003L17.4412 47.0003C17.8485 47.0017 18.2387 47.1665 18.5265 47.4588C18.8143 47.7511 18.9786 48.1471 18.9793 48.5602L18.9793 48.8951C18.9761 49.1867 18.8582 49.4655 18.6551 49.6719C18.452 49.8784 18.1774 49.9961 17.8898 50L1.10425 50C0.814201 49.9987 0.536478 49.8809 0.331842 49.6724C0.126423 49.4641 0.00869209 49.1822 0.00739518 48.8876L0.00739518 48.5502C0.00869508 48.1375 0.170898 47.7422 0.458597 47.4504C0.746296 47.1587 1.13613 46.9942 1.54299 46.9929L8.27694 46.9929L8.27694 34.5318C8.27759 34.4438 8.31234 34.3596 8.37368 34.2974C8.43502 34.2352 8.51802 34.2 8.60477 34.1993L8.63188 34.1993L8.63188 29.8523C8.15495 29.8164 7.70897 29.5993 7.38313 29.2442C7.0573 28.8892 6.87562 28.4226 6.87445 27.9376L6.87445 18.8836C6.36151 18.7276 5.86196 18.5295 5.38075 18.2912C5.85704 18.5304 6.35162 18.7302 6.85966 18.8886L6.85966 27.9376C6.86131 28.4229 7.04301 28.8899 7.36863 29.2456C7.69425 29.6013 8.13995 29.8197 8.61709 29.8573L8.61709 34.1918L8.59491 34.1918C8.50601 34.1918 8.42074 34.2276 8.35787 34.2914C8.29501 34.3552 8.25969 34.4416 8.25969 34.5318L8.25969 46.9828L1.54299 46.9828C1.13499 46.9855 0.744389 47.1508 0.455649 47.4432C0.16691 47.7355 0.00323007 48.1314 9.03109e-09 48.5452L9.09387e-09 48.8826C0.00194411 49.1788 0.118987 49.4622 0.325724 49.6714C0.532461 49.8806 0.812209 49.9987 1.10425 50L17.8898 50C18.1814 49.998 18.4606 49.8797 18.6668 49.6706C18.873 49.4614 18.9897 49.1784 18.9916 48.8826L18.9916 48.5477C18.991 48.1333 18.8285 47.736 18.5398 47.4428C18.2511 47.1495 17.8597 46.9842 17.4511 46.9828ZM18.9325 10.2821C19.0179 9.16739 18.9086 8.04615 18.6096 6.96998C18.2982 5.9027 17.8043 4.89921 17.1504 4.00533C17.8044 4.89676 18.2991 5.89766 18.612 6.96248C18.9111 8.04119 19.0196 9.16506 18.9325 10.2821ZM16.9039 3.62287C16.5518 3.18895 16.1643 2.7859 15.7454 2.41801C16.1669 2.78309 16.5546 3.18638 16.9039 3.62287ZM15.6222 2.29052C14.6649 1.47422 13.5597 0.855225 12.3686 0.468236C13.5588 0.855521 14.6631 1.47451 15.6197 2.29052L15.6222 2.29052ZM12.1566 1.31814C12.4608 1.42901 12.7594 1.55498 13.0513 1.69559C12.6879 1.52522 12.3131 1.38072 11.9298 1.26314C12.0013 1.28564 12.0802 1.29314 12.1541 1.31814L12.1566 1.31814ZM6.86705 0.393245C7.92456 0.0931634 9.02586 -0.0159862 10.1206 0.070782C7.91353 -0.115861 5.71583 0.527419 3.94621 1.87807C4.82578 1.21367 5.81358 0.711092 6.86459 0.393245L6.86705 0.393245ZM9.80515 0.918184L9.1988 0.918184C9.29986 0.918184 9.39845 0.893187 9.49951 0.893187C9.60057 0.893187 9.69916 0.913184 9.80268 0.918184L9.80515 0.918184ZM8.26709 0.990676C8.0625 1.02067 7.86285 1.07567 7.66073 1.12066C7.86039 1.07567 8.06004 1.02067 8.27694 0.990676L8.26709 0.990676ZM7.06917 1.25564C6.68535 1.37638 6.30918 1.5208 5.94274 1.68809C6.23551 1.5474 6.53494 1.42143 6.83994 1.31064C6.91635 1.29564 6.99276 1.28564 7.06917 1.25564ZM9.72627 34.2018L9.26288 34.2018L9.26288 29.9523L9.71641 29.9523L9.72627 34.2018ZM11.4763 27.9376C11.4731 28.268 11.3422 28.584 11.1118 28.8177C10.8814 29.0514 10.5698 29.1842 10.2439 29.1874L8.76498 29.1874C8.43912 29.1842 8.12751 29.0514 7.89708 28.8177C7.66665 28.584 7.53577 28.268 7.53256 27.9376L7.53256 19.0411C7.77905 19.0961 8.02553 19.1411 8.35335 19.1811C9.11811 19.2722 9.89076 19.2722 10.6555 19.1811C10.9431 19.1444 11.2167 19.0977 11.4763 19.0411L11.4763 27.9376ZM10.5446 18.3087C9.84963 18.3948 9.14691 18.3948 8.45195 18.3087C6.36403 18.0472 4.4423 17.0209 3.04827 15.423C1.65424 13.8251 0.883982 11.7657 0.882414 9.63217C0.87407 7.99876 1.322 6.39634 2.17435 5.01036C3.0267 3.62439 4.24863 2.51153 5.69872 1.80058C5.24261 2.02702 4.80711 2.29386 4.39728 2.59799C3.39698 3.34289 2.56724 4.29824 1.96487 5.39862C1.36251 6.49899 1.00176 7.71839 0.90733 8.97331C0.812898 10.2282 0.987014 11.489 1.41775 12.6693C1.84849 13.8497 2.52568 14.9217 3.40294 15.8119C4.2802 16.7021 5.3368 17.3895 6.5004 17.8271C7.664 18.2646 8.90711 18.442 10.1446 18.347C11.3821 18.252 12.5847 17.8869 13.6701 17.2767C14.7554 16.6665 15.698 15.8256 16.4331 14.8116C17.0301 13.9729 17.4758 13.0334 17.7493 12.0369C17.2958 13.6862 16.3685 15.1613 15.0854 16.2742C13.8023 17.3872 12.2216 18.0875 10.5446 18.2862C8.65892 18.516 6.75122 18.1069 5.11871 17.1226C3.4862 16.1382 2.22057 14.6339 1.51898 12.844C0.817402 11.0541 0.719273 9.07918 1.23989 7.22683C1.7605 5.37448 2.87061 3.74878 4.39728 2.60299C4.81432 2.29362 5.25721 2.02179 5.7209 1.79058L5.84414 1.73809C6.2424 1.54812 6.65441 1.38935 7.07657 1.26314C7.26143 1.20815 7.44876 1.17065 7.63362 1.12816C7.81848 1.08566 8.06743 1.02317 8.28927 0.990676C8.5111 0.958179 8.7009 0.95568 8.91041 0.940681C9.30771 0.91626 9.7061 0.91626 10.1034 0.940681C10.3104 0.95568 10.5175 0.960679 10.7221 0.990676C10.9267 1.02067 11.1583 1.07817 11.3777 1.12816C11.5971 1.17815 11.7499 1.20815 11.9323 1.26314C12.3548 1.3892 12.7669 1.54884 13.1647 1.74059L13.283 1.79058C14.6757 2.47614 15.8539 3.5395 16.687 4.86273C16.1332 3.98885 15.4305 3.22197 14.6116 2.59799C14.2018 2.29386 13.7663 2.02702 13.3102 1.80058C14.8088 2.53854 16.059 3.70907 16.9039 5.16519C17.6343 6.41495 18.0464 7.82951 18.1029 9.28119C18.1594 10.7329 17.8585 12.176 17.2275 13.4802C16.5964 14.7845 15.6551 15.9088 14.4883 16.7518C13.3216 17.5948 11.9662 18.1298 10.5446 18.3087ZM1.92258 15.4315C2.44751 16.152 3.07557 16.7889 3.786 17.3213C3.08015 16.7836 2.4528 16.1473 1.92258 15.4315ZM9.71888 29.9673L9.27767 29.9673L9.27767 34.1968L9.71888 34.1968L9.71888 29.9673ZM9.71888 34.1893L9.29 34.1893L9.29 29.9723L9.71888 29.9723L9.71888 34.1893Z" fill="black"/>
</svg>
